<?xml version="1.0" standalone="no"?>
<!DOCTYPE svg PUBLIC "-//W3C//DTD SVG 20010904//EN"
 "http://www.w3.org/TR/2001/REC-SVG-20010904/DTD/svg10.dtd">
<svg version="1.0" xmlns="http://www.w3.org/2000/svg"
 width="1024.000000pt" height="658.000000pt" viewBox="0 0 1024.000000 658.000000"
 preserveAspectRatio="xMidYMid meet">
<metadata>
Created by potrace 1.16, written by Peter Selinger 2001-2019
</metadata>
<g transform="translate(0.000000,658.000000) scale(0.100000,-0.100000)"
fill="#000000" stroke="none">
<path d="M0 3290 l0 -3290 2231 0 c1958 0 2230 2 2226 15 -4 8 -2 17 3 20 6 4
10 -4 10 -17 0 -18 2 -20 10 -8 8 12 10 12 10 1 0 -8 2 -12 4 -10 5 5 -18 115
-29 143 -6 14 -5 17 3 12 7 -4 15 -25 18 -47 4 -25 12 -39 21 -39 10 0 14 7
10 20 -3 11 -2 20 1 20 8 0 27 -44 36 -82 4 -16 11 -28 17 -28 6 0 8 7 5 17
-4 9 -11 36 -16 59 -6 24 -19 66 -30 94 -11 28 -20 61 -20 73 1 28 24 -28 54
-133 11 -41 27 -84 33 -95 12 -19 12 -19 13 3 0 12 -7 38 -15 58 -8 19 -14 35
-14 37 0 3 -12 40 -21 62 -5 11 -11 34 -13 50 -3 17 -9 38 -12 48 -4 9 -3 17
3 17 5 0 13 -12 16 -27 4 -16 23 -81 44 -145 l37 -118 34 0 c27 0 32 3 27 18
-6 16 -5 16 7 0 12 -15 39 -17 236 -18 209 0 223 1 217 17 -6 17 -5 17 8 1 19
-26 27 -22 21 9 l-5 28 11 -27 11 -28 1065 0 c1003 0 1067 1 1079 18 13 16 13
16 14 -3 0 -17 2 -17 10 -5 6 10 10 11 10 3 0 -10 49 -13 210 -13 180 0 210 2
210 15 0 8 9 15 20 15 13 0 18 -5 14 -15 -5 -11 1 -15 20 -15 17 0 26 5 26 16
0 8 -5 12 -10 9 -6 -3 -10 1 -10 9 0 22 11 20 42 -9 29 -27 58 -33 58 -12 0 9
3 8 9 -2 7 -11 9 -11 14 0 4 10 6 10 6 2 1 -7 12 -13 26 -13 24 0 29 8 26 40
-1 11 3 10 14 -4 8 -11 15 -23 15 -28 0 -13 48 -9 54 5 5 10 7 10 12 0 7 -15
54 -17 54 -3 0 6 -4 10 -10 10 -5 0 -14 9 -20 20 -10 19 -10 20 10 8 11 -7 23
-21 26 -30 6 -19 44 -25 44 -8 0 6 -6 10 -14 10 -7 0 -21 11 -30 25 -24 37 -5
30 31 -10 33 -37 48 -43 56 -22 4 10 6 10 6 0 1 -7 8 -13 17 -13 10 0 14 6 11
15 -4 8 -2 17 3 20 6 4 10 -3 10 -14 0 -18 6 -21 39 -21 22 0 42 6 45 13 5 10
7 10 12 0 3 -7 10 -13 15 -13 17 0 9 25 -16 49 -26 24 -32 41 -15 41 6 0 10
-5 10 -12 0 -6 3 -8 6 -5 8 8 -14 37 -28 37 -5 0 -6 -5 -2 -11 4 -7 1 -10 -6
-7 -20 6 -24 28 -6 28 9 0 16 5 16 10 0 6 -11 8 -26 4 -18 -5 -25 -3 -20 4 3
6 20 13 36 17 16 4 32 11 35 16 8 11 25 12 25 0 0 -5 27 -37 60 -72 33 -35 60
-73 60 -84 0 -15 2 -17 9 -6 6 9 11 10 15 2 8 -12 26 -15 26 -3 0 4 -11 19
-25 34 -14 15 -25 35 -25 44 0 10 -3 15 -6 11 -6 -5 -84 66 -84 77 0 2 11 3
24 2 13 0 22 -4 20 -7 -2 -4 3 -12 11 -19 8 -7 15 -19 15 -27 0 -8 5 -11 10
-8 6 3 10 3 10 -2 0 -4 9 -19 20 -33 17 -21 21 -23 29 -10 6 8 14 11 18 6 4
-5 2 -11 -4 -13 -7 -3 -13 -12 -13 -20 0 -9 6 -13 15 -10 8 4 17 2 20 -3 4 -6
1 -10 -4 -10 -6 0 -11 -4 -11 -10 0 -14 37 -12 44 3 5 10 7 10 12 0 8 -18 34
-16 34 2 0 8 -4 15 -10 15 -5 0 -10 7 -10 17 0 15 2 15 19 -1 11 -10 17 -25
14 -34 -4 -15 -3 -15 7 -2 9 11 13 12 17 3 7 -19 26 -16 19 3 -4 9 -2 13 5 8
7 -4 10 -1 7 7 -3 8 -13 13 -23 12 -13 -1 -14 2 -5 10 9 9 18 4 41 -20 l29
-33 700 0 700 0 0 825 c0 778 -1 826 -17 831 -55 17 -230 142 -216 154 17 17
83 29 90 17 5 -7 17 -17 27 -23 26 -14 32 -34 11 -34 -32 0 -10 -35 40 -62 28
-15 53 -28 58 -28 4 0 7 1103 7 2450 l0 2450 -5120 0 -5120 0 0 -3290z m3227
1730 c73 0 73 0 86 -32 l14 -33 -91 -12 c-50 -7 -136 -13 -190 -15 l-99 -3
-10 28 c-5 16 -7 30 -6 32 9 8 186 43 204 39 11 -2 53 -4 92 -4z m863 -475
c63 -93 125 -180 137 -193 13 -13 23 -29 23 -36 0 -7 8 -21 18 -32 9 -10 37
-50 62 -88 24 -38 50 -75 58 -82 7 -8 10 -19 6 -25 -4 -7 -3 -9 3 -6 6 4 34
-31 64 -76 29 -45 61 -91 71 -102 10 -10 16 -25 13 -33 -2 -7 -1 -11 4 -8 5 4
22 -15 37 -41 15 -27 30 -50 33 -53 3 -3 19 -22 34 -42 l28 -38 150 0 c163 0
200 -8 252 -58 39 -37 55 -70 66 -138 16 -108 -22 -201 -106 -254 l-45 -28 21
-21 c13 -13 16 -21 8 -25 -7 -2 -5 -5 5 -5 9 -1 20 -10 23 -21 3 -11 11 -20
16 -20 5 0 2 -14 -7 -31 -8 -17 -11 -28 -5 -25 6 4 11 2 11 -4 0 -8 6 -8 21 0
19 11 20 10 8 -12 -7 -13 -12 -30 -10 -38 1 -8 -6 -4 -15 10 -10 14 -24 28
-30 33 -7 4 -10 15 -7 24 4 10 2 14 -4 10 -7 -4 -27 20 -49 58 l-38 65 -103 0
-103 0 0 -139 0 -138 -25 5 c-14 2 -31 -1 -39 -7 -10 -8 -16 -9 -21 -1 -3 5
-21 10 -39 10 l-33 0 -7 78 c-8 101 -9 103 -14 97 -7 -7 -83 147 -78 159 2 6
5 4 5 -5 1 -21 41 -33 41 -12 0 8 -4 11 -10 8 -5 -3 -10 2 -10 12 1 16 3 15
20 -5 15 -18 17 -29 10 -47 -8 -20 -6 -23 7 -18 14 5 15 1 10 -28 -6 -30 -5
-32 6 -14 9 15 12 88 11 273 -1 239 0 252 18 252 27 0 23 14 -21 72 -22 28
-48 68 -58 87 -10 20 -23 41 -29 46 -7 6 -31 42 -55 80 -24 39 -67 104 -96
146 -36 52 -51 83 -47 95 4 13 3 15 -3 6 -7 -9 -16 -2 -35 25 -13 21 -71 106
-126 189 -58 85 -102 162 -102 175 0 19 -2 21 -10 9 -5 -8 -10 -12 -10 -8 0 3
-3 14 -7 24 -5 13 -3 15 7 9 9 -5 11 -4 6 4 -4 6 -11 9 -16 6 -11 -7 -53 62
-45 75 9 15 20 2 145 -185z m-2202 48 c2 -24 7 -43 11 -43 4 0 17 14 29 30 26
35 66 40 82 11 5 -11 10 -23 10 -26 0 -4 -29 -36 -65 -71 l-65 -64 0 -60 c0
-33 3 -60 7 -60 4 0 24 16 45 37 36 35 37 36 62 19 15 -9 26 -22 26 -29 0 -7
-31 -45 -70 -86 l-70 -73 0 -73 c0 -40 3 -80 6 -89 13 -33 50 -16 117 54 l66
69 3 88 3 88 29 3 c35 4 46 -10 46 -63 l0 -39 45 44 45 44 0 83 c0 72 2 84 20
93 32 17 60 -4 60 -45 0 -36 8 -43 27 -24 6 6 21 9 34 7 29 -4 38 -48 15 -68
-26 -21 -18 -29 32 -32 43 -3 47 -5 50 -30 4 -36 -17 -45 -112 -46 l-79 0 -46
-46 -46 -46 47 0 c61 0 78 -7 78 -34 0 -38 -19 -46 -114 -46 l-90 0 -58 -57
c-32 -32 -58 -61 -58 -65 0 -4 10 -8 23 -8 12 0 54 -11 92 -24 l70 -24 43 35
c24 19 53 48 64 64 26 34 54 45 73 29 25 -21 17 -52 -22 -92 l-37 -38 65 0
c64 0 65 1 109 46 71 73 95 87 120 72 28 -18 25 -41 -10 -82 l-31 -35 33 -3
c29 -3 33 -6 33 -33 0 -25 -5 -32 -32 -40 l-33 -11 33 -32 c26 -26 30 -35 21
-50 -22 -34 -50 -25 -117 37 -62 58 -67 61 -116 61 -28 0 -51 -3 -51 -7 0 -5
27 -30 60 -58 74 -61 190 -214 190 -250 0 -3 -47 -5 -105 -5 l-105 0 -69 73
c-83 87 -156 132 -264 165 -267 81 -555 -24 -705 -257 -33 -52 -92 -196 -92
-226 0 -13 43 -15 301 -15 340 0 315 8 256 -83 -19 -29 -41 -64 -51 -80 l-17
-27 -342 2 -342 3 1 110 c2 227 81 406 253 573 l86 83 -68 -2 -68 -2 -61 -59
c-48 -46 -67 -58 -87 -56 -40 5 -40 42 1 80 l33 32 -35 6 c-31 4 -35 8 -35 35
0 27 4 31 35 35 l35 5 -32 34 c-38 39 -42 66 -13 81 26 14 42 5 109 -64 l55
-56 64 0 65 0 -43 46 c-39 42 -41 47 -27 67 8 12 21 22 30 22 8 0 47 -30 86
-67 39 -38 75 -68 79 -68 5 0 41 11 80 25 39 14 82 25 94 25 19 0 14 9 -37 60
l-59 60 -98 0 c-87 0 -98 2 -108 20 -8 14 -8 26 0 40 9 16 21 20 66 20 l56 0
-44 45 -43 45 -88 1 c-91 2 -124 15 -113 46 3 8 6 19 6 24 0 5 23 9 50 9 55 0
61 7 30 35 -28 26 -23 69 8 73 13 2 32 -4 43 -14 18 -17 19 -16 19 27 0 57 10
71 46 67 l29 -3 3 -96 3 -96 44 -43 45 -44 0 49 c0 63 10 77 46 73 l29 -3 3
-100 3 -100 67 -67 c64 -66 93 -81 108 -57 4 7 9 43 11 80 l4 68 -70 76 c-39
42 -71 80 -71 85 0 14 30 40 48 40 9 0 33 -16 53 -36 l36 -35 -1 65 -1 66 -62
63 c-35 35 -63 68 -63 72 0 14 32 45 46 45 7 0 25 -13 41 -30 15 -16 31 -30
34 -30 3 0 6 15 6 33 0 54 9 69 40 65 25 -3 28 -7 31 -45z m5732 -675 c0 6 9
10 20 9 11 -1 20 -5 20 -9 0 -4 25 -22 56 -39 57 -33 59 -49 3 -49 -14 0 -40
-5 -58 -11 -30 -11 -37 -8 -88 27 -46 32 -52 39 -37 45 11 4 15 8 9 9 -5 0 4
7 20 14 20 9 34 10 43 3 8 -6 12 -6 12 1z m-4064 -236 c75 -39 134 -126 134
-199 0 -22 -4 -23 -75 -23 -63 0 -77 3 -81 18 -20 62 -46 83 -116 96 -77 14
-158 -32 -158 -89 0 -41 39 -62 187 -99 141 -36 203 -62 235 -101 25 -29 41
-108 33 -157 -23 -135 -130 -208 -305 -208 -183 0 -310 97 -310 238 0 17 -6
33 -12 35 -7 3 -3 6 9 6 12 1 25 -3 28 -9 3 -5 25 -9 48 -9 32 2 35 3 14 6
-25 4 -28 8 -23 28 8 30 -10 78 -26 73 -7 -3 -17 -21 -21 -41 -6 -22 -15 -37
-24 -37 -10 0 -13 6 -9 16 3 9 6 29 6 45 0 20 4 28 12 23 7 -4 8 -3 4 4 -4 6
-1 20 6 31 10 16 15 18 27 8 9 -8 8 -1 -5 23 -14 26 -19 56 -19 115 0 70 4 86
28 127 46 79 125 109 272 105 79 -2 109 -8 141 -25z m350 8 c32 1 64 1 71 1 9
-1 13 -73 15 -282 l3 -281 33 -29 c35 -32 64 -40 41 -12 -10 11 -10 14 -1 9 9
-5 11 -1 8 16 -3 13 -5 25 -5 28 -1 3 -5 -1 -10 -8 -5 -9 -16 7 -32 50 -36 97
-38 94 53 108 67 11 82 11 89 -1 8 -13 13 -6 10 14 -3 19 16 3 28 -24 12 -27
12 -32 0 -40 -10 -6 -15 -3 -17 11 -2 11 -7 20 -12 20 -5 0 -7 -6 -4 -14 3 -8
1 -17 -5 -21 -6 -3 -11 -11 -11 -16 0 -6 4 -8 9 -5 5 3 12 -6 16 -21 3 -15 14
-32 23 -39 15 -11 15 -15 3 -26 -12 -11 -13 -11 -6 1 6 11 4 13 -9 8 -10 -4
-21 -7 -26 -7 -4 0 -7 -11 -6 -24 1 -19 4 -22 18 -15 26 14 34 11 12 -6 -10
-8 -14 -15 -8 -15 15 0 46 35 37 43 -3 4 1 7 9 7 9 0 19 7 22 16 11 28 7 162
-5 170 -8 5 -7 9 4 15 13 8 15 35 14 183 -1 96 1 178 5 181 10 10 151 6 157
-4 3 -5 4 -137 1 -293 -5 -277 -6 -284 -30 -332 -48 -94 -134 -136 -277 -136
-135 0 -231 51 -279 146 -17 35 -19 68 -22 327 -4 279 0 337 17 308 5 -8 28
-12 67 -11z m3581 -13 c109 -56 161 -128 189 -263 20 -98 7 -231 -31 -310 -30
-62 -100 -137 -139 -150 l-28 -10 28 -12 c24 -12 26 -11 14 2 -10 13 -10 16 0
16 8 0 22 7 32 17 12 11 18 12 18 4 0 -7 9 -24 20 -38 11 -14 17 -29 14 -34
-3 -5 0 -9 6 -9 6 0 8 -5 5 -10 -4 -6 -11 -8 -16 -5 -5 4 -9 1 -9 -4 0 -18
-13 -12 -54 24 -50 44 -67 49 -114 34 -51 -17 -168 -14 -221 5 -24 9 -48 13
-54 9 -5 -3 -7 -1 -4 4 8 12 -20 26 -34 17 -5 -3 -9 2 -9 10 0 8 -5 18 -12 22
-7 4 -8 3 -4 -4 5 -8 2 -10 -8 -6 -9 3 -14 11 -13 17 1 7 -6 11 -15 9 -10 -2
-18 2 -18 8 0 5 5 10 12 10 6 0 2 9 -10 20 -12 12 -22 28 -22 38 0 13 -2 14
-9 4 -6 -9 -8 -5 -8 15 0 15 -8 63 -18 106 -43 179 29 380 159 450 75 40 107
47 206 43 79 -2 104 -7 147 -29z m-1667 -57 l0 -70 -195 0 -195 0 0 -75 0 -75
180 0 180 0 0 -65 0 -65 -180 0 -180 0 0 -95 0 -95 203 -2 202 -3 3 -67 3 -68
-286 0 -285 0 0 375 0 375 275 0 275 0 0 -70z m633 51 c124 -53 166 -237 75
-329 -17 -18 -34 -32 -39 -32 -5 0 -9 -4 -9 -9 0 -10 39 -27 53 -23 4 1 7 -3
6 -10 -2 -7 3 -37 9 -66 7 -29 12 -86 12 -126 0 -48 5 -79 15 -92 8 -10 14
-30 15 -44 0 -17 -3 -21 -8 -12 -6 9 -31 11 -90 8 -80 -5 -82 -4 -88 19 -7 29
-12 90 -13 172 -1 59 -3 62 -35 82 -28 18 -49 21 -135 21 l-101 0 0 -145 0
-145 -80 0 -80 0 0 375 0 375 224 0 c198 0 230 -2 269 -19z m407 -339 l0 -359
23 -12 c12 -6 14 -9 4 -6 -10 3 -15 1 -12 -5 3 -6 21 -10 40 -10 19 0 37 -5
41 -12 5 -8 -3 -9 -32 -4 -21 4 -82 8 -134 9 l-95 2 3 280 c1 154 2 324 2 378
l0 97 80 0 80 0 0 -358z m1432 339 c134 -57 173 -252 70 -342 l-34 -30 21 -16
c35 -24 45 -60 50 -187 4 -82 10 -121 19 -124 6 -2 12 -10 12 -18 0 -11 -19
-14 -90 -14 -49 0 -90 1 -91 3 0 1 -4 56 -9 122 -8 112 -10 121 -35 142 -24
21 -36 23 -133 23 l-107 0 3 -145 3 -145 -86 0 -86 0 5 368 c3 202 5 370 6
375 0 4 99 7 219 7 192 0 225 -2 263 -19z m840 -185 c4 3 33 -9 65 -27 71 -39
70 -38 54 -48 -9 -6 1 -17 35 -40 26 -17 53 -31 61 -31 7 0 13 -7 13 -15 0 -8
-5 -15 -11 -15 -5 0 -7 -5 -4 -10 4 -6 11 -8 16 -5 5 4 9 -1 9 -9 0 -8 8 -17
18 -19 12 -3 10 -5 -6 -6 -13 0 -36 -9 -50 -20 -37 -25 -103 -32 -118 -12 -10
13 -13 13 -28 -2 -23 -22 -29 -22 -16 2 14 27 13 31 -10 31 -13 0 -20 7 -20
20 0 12 -7 32 -16 45 -9 14 -14 31 -11 39 3 8 -1 20 -9 26 -18 16 -18 40 1 40
8 0 15 5 15 11 0 7 -9 9 -21 6 -18 -5 -20 -2 -15 16 3 12 6 28 6 36 0 11 4 11
18 -2 10 -10 21 -14 24 -11z m-3937 -576 c-3 -6 1 -10 10 -10 12 0 15 -5 9
-22 -6 -21 -5 -22 11 -8 17 14 18 13 13 -7 -4 -16 -2 -23 8 -23 8 0 14 -5 14
-11 0 -13 26 -40 33 -33 3 3 8 0 13 -7 5 -8 3 -10 -6 -4 -8 5 -11 3 -8 -6 3
-8 9 -13 14 -12 5 1 9 -16 10 -37 0 -24 8 -47 19 -60 19 -20 19 -21 -1 -14
-19 7 -19 7 0 -14 11 -12 17 -25 14 -28 -6 -5 -148 203 -148 218 0 4 -5 8 -11
8 -6 0 -9 7 -5 15 3 8 0 14 -7 12 -7 -1 -11 6 -11 15 1 10 -2 16 -6 13 -4 -2
-12 7 -18 20 -7 14 -8 25 -3 25 5 0 12 -7 15 -16 9 -23 25 -8 19 19 l-5 22 16
-23 c10 -12 14 -27 11 -32z m1846 4 c7 -9 22 -14 36 -11 27 5 77 -31 56 -39
-15 -6 -18 -44 -4 -44 6 0 13 5 16 10 3 6 13 10 21 10 8 0 14 -4 14 -10 0 -5
-9 -10 -20 -10 -11 0 -20 -4 -20 -9 0 -6 -15 -7 -34 -4 -32 5 -57 -10 -41 -25
4 -4 10 -1 12 6 6 14 39 16 48 2 3 -5 -2 -10 -12 -10 -15 -1 -16 -2 -3 -9 8
-5 61 -8 118 -8 56 1 102 -1 102 -5 0 -5 -58 -8 -130 -8 -113 0 -130 -2 -139
-18 -5 -9 -31 -23 -58 -31 -26 -7 -54 -21 -62 -30 -8 -10 -15 -12 -18 -5 -12
33 -33 47 -76 50 l-46 4 -4 -57 c-3 -56 -3 -55 -5 15 -2 64 -4 72 -22 72 -10
0 -24 -8 -29 -17 -6 -10 -11 -13 -11 -7 0 6 -14 17 -30 24 -42 17 -68 53 -62
85 11 59 125 95 238 76 58 -11 134 -44 142 -63 2 -4 24 -8 48 -8 28 0 43 4 39
10 -3 6 -19 10 -34 10 -33 0 -60 24 -39 34 7 3 4 4 -8 1 -13 -3 -27 2 -39 15
-18 20 -18 20 12 20 17 0 36 -7 44 -16z m-1025 -139 c-3 -10 5 -15 27 -18 27
-3 25 -4 -10 -5 l-43 -2 -2 -127 c-1 -90 -3 -115 -8 -83 -6 40 -7 41 -8 12 -2
-30 -4 -32 -17 -18 -8 8 -15 17 -15 20 0 3 -9 15 -20 26 -12 12 -20 33 -20 54
0 33 13 55 23 39 2 -5 2 -2 1 5 -6 24 9 72 22 72 7 0 18 8 23 18 11 21 55 28
47 7z m-1796 -113 c0 -10 7 -27 15 -38 19 -26 22 -186 2 -178 -7 2 -24 -6 -37
-18 l-25 -23 40 -3 c27 -2 43 1 51 12 6 9 16 16 21 16 6 0 8 12 6 28 -4 28 16
-8 59 -108 11 -25 26 -58 34 -73 16 -33 18 -70 5 -95 -5 -9 -13 -26 -17 -37
-7 -18 -8 -17 -12 8 -4 33 -21 36 -23 5 l-2 -23 -4 23 c-5 26 -4 25 -37 10
-14 -6 -28 -20 -32 -30 -3 -10 -18 -21 -35 -25 -16 -3 -26 -10 -23 -15 4 -6
-5 -8 -23 -4 -21 5 -34 2 -43 -9 -7 -8 -26 -14 -44 -14 l-31 2 35 7 c37 8 36
8 -42 14 -14 1 -26 -3 -25 -9 1 -5 -6 -9 -16 -9 -13 2 -16 -3 -11 -18 4 -14 3
-18 -6 -13 -6 4 -20 -2 -31 -13 -17 -19 -17 -21 -1 -25 13 -4 12 -5 -4 -6 -27
-1 -38 13 -52 69 -17 70 -24 119 -13 95 15 -33 12 -3 -5 45 -11 30 -14 63 -11
98 5 45 3 52 -13 52 -10 0 -20 8 -23 18 -2 9 -8 25 -12 35 -5 13 -2 17 14 17
20 0 26 14 22 48 -2 14 1 14 23 6 8 -3 13 -11 10 -19 -8 -20 37 -26 65 -9 19
13 25 14 32 3 14 -22 11 -45 -8 -60 -13 -11 -17 -11 -20 -1 -3 6 -16 12 -29
12 -14 0 -22 -4 -19 -10 3 -5 -3 -10 -15 -10 -16 0 -19 -4 -12 -17 5 -10 7
-24 5 -30 -3 -7 2 -13 11 -13 9 0 16 -4 16 -10 0 -15 19 -12 36 4 8 9 27 13
45 11 17 -3 40 0 50 6 15 7 19 6 19 -6 0 -8 -5 -15 -12 -15 -8 0 -6 -6 5 -17
22 -22 31 -11 20 24 -7 18 -16 27 -27 25 -9 -2 -16 4 -16 14 0 10 -5 14 -15
10 -9 -3 -15 0 -15 9 0 8 7 15 16 15 11 0 15 6 11 20 -3 12 0 20 8 20 7 0 18
7 25 15 16 19 30 19 30 1 0 -8 -8 -13 -17 -12 -14 1 -18 -6 -16 -26 1 -16 -2
-28 -8 -28 -5 0 -9 -4 -9 -10 0 -5 6 -10 13 -10 6 0 20 -15 30 -32 18 -32 19
-32 34 -13 15 19 15 19 9 -6 -4 -20 -1 -29 17 -37 21 -11 21 -12 1 -9 -11 1
-22 -2 -23 -8 -3 -17 45 -17 59 -1 10 12 10 16 0 16 -7 0 -10 7 -6 15 3 8 -3
20 -14 28 -11 8 -17 17 -14 20 4 4 2 13 -4 20 -6 7 -9 24 -7 37 2 13 -1 30 -7
37 -6 7 -8 16 -5 20 4 3 0 11 -7 17 -16 12 -26 55 -13 56 4 0 11 0 17 0 5 0
12 -16 16 -35 7 -40 6 -39 51 -23 24 9 33 18 33 35 0 18 -6 23 -27 23 -25 1
-26 2 -11 14 16 12 16 14 -8 26 -17 10 -27 11 -32 3 -10 -16 -49 -25 -57 -14
-3 6 4 20 16 32 15 15 30 20 55 17 28 -3 34 -1 34 15 0 17 -5 19 -37 13 -21
-3 -48 -9 -60 -12 -19 -5 -23 -2 -23 14 0 17 8 22 38 27 20 4 42 8 47 10 27 9
45 4 45 -13z m1513 -24 c13 -13 32 -38 41 -55 18 -36 40 -43 50 -16 6 14 9 15
15 4 5 -7 14 -10 20 -7 6 4 9 12 6 17 -12 18 22 9 40 -11 17 -19 35 -73 19
-57 -4 4 -16 -1 -26 -10 -14 -13 -21 -14 -30 -5 -17 17 -25 15 -25 -5 1 -74
13 -66 -147 -100 -18 -4 -32 -1 -38 8 -8 11 -9 11 -5 -2 4 -12 -2 -18 -19 -22
-13 -2 -24 1 -24 6 0 7 -4 7 -12 -1 -9 -9 -7 -17 11 -36 14 -15 20 -30 16 -37
-5 -7 -4 -10 2 -6 9 6 23 -11 27 -33 1 -3 6 -12 11 -20 29 -44 35 -55 56 -107
5 -13 14 -34 20 -47 6 -13 9 -29 5 -34 -3 -6 -3 -18 1 -28 6 -16 7 -15 21 2
12 16 14 16 9 2 -3 -10 -2 -20 3 -23 6 -4 10 -17 10 -31 0 -33 -13 -24 -55 39
-19 29 -60 88 -91 132 -32 44 -62 89 -68 100 -6 11 -33 53 -60 93 -49 72 -54
88 -23 76 9 -3 13 -12 10 -22 -4 -13 -2 -12 11 3 12 14 19 16 22 8 3 -7 18
-13 33 -13 15 0 33 6 40 13 11 10 13 9 8 -5 -4 -10 -2 -18 3 -18 6 0 10 6 10
14 0 7 15 21 34 30 31 15 34 20 38 68 2 34 -1 55 -10 62 -7 6 -19 17 -27 24
-7 6 -20 12 -28 12 -24 0 -27 12 -9 36 23 31 73 32 105 2z m-630 -349 l46 -85
-40 -11 -40 -10 -24 41 c-48 84 -50 91 -25 131 12 20 26 33 30 28 4 -4 28 -46
53 -94z m662 -419 c0 -3 16 -26 36 -50 20 -25 53 -74 74 -110 20 -36 44 -69
52 -73 12 -7 14 -74 12 -450 -2 -243 -4 -434 -6 -425 -4 14 -9 15 -33 7 -16
-6 -31 -17 -34 -25 -4 -10 -2 -12 5 -8 7 4 10 2 8 -5 -7 -19 -23 -16 -34 7 -6
11 -16 26 -21 33 -6 8 -34 58 -63 112 -42 80 -50 101 -40 113 6 8 9 17 6 20
-6 6 21 93 35 111 5 7 5 14 -2 18 -6 4 -8 15 -5 26 4 10 2 19 -3 19 -7 0 -10
134 -11 363 0 283 2 358 12 342 6 -11 12 -22 12 -25z m-1203 -35 c0 -8 1 -20
2 -26 1 -7 -60 -26 -144 -45 -80 -19 -156 -38 -170 -43 -60 -23 -88 -23 -100
-1 -6 12 -9 24 -7 27 6 5 383 101 405 102 6 1 13 -6 14 -14z m5389 -89 c19
-14 65 -45 102 -71 38 -25 66 -52 64 -58 -5 -15 -107 -46 -127 -39 -12 5 -10
7 5 10 27 5 55 31 55 51 0 31 -92 92 -138 90 -16 0 -21 -3 -12 -6 21 -9 40
-30 33 -37 -4 -3 -28 -6 -54 -6 -27 0 -49 -5 -51 -12 -3 -7 -22 -2 -56 17 -29
15 -49 31 -46 34 3 3 31 15 62 27 78 30 121 30 163 0z m-4731 -360 c0 -33 -2
-35 -54 -50 -65 -19 -122 -21 -129 -3 -3 6 -6 2 -6 -10 -1 -25 -5 -28 -46 -37
-22 -5 -26 -4 -15 4 13 9 13 11 0 20 -8 5 -26 7 -40 4 -22 -4 -22 -3 -5 5 l20
10 -20 1 c-21 2 44 25 180 64 112 33 115 33 115 -8z m3210 -846 c0 -6 30 -39
66 -74 55 -53 65 -67 59 -86 -6 -20 -4 -21 16 -15 20 7 22 6 12 -7 -14 -16 -8
-28 13 -28 8 0 11 6 7 16 -5 14 -3 14 16 3 24 -16 28 -39 6 -39 -8 0 -15 -5
-15 -10 0 -7 6 -7 19 0 32 16 32 -4 1 -22 -24 -14 -29 -14 -34 -2 -3 8 -10 14
-16 14 -13 0 -13 -27 0 -33 6 -3 7 -5 2 -4 -19 4 -110 117 -108 134 2 10 1 12
-1 6 -3 -7 -7 -13 -9 -13 -8 0 -85 84 -96 103 -8 16 -7 18 9 13 22 -7 58 18
48 34 -6 9 -10 9 -16 -1 -5 -8 -9 -9 -9 -3 0 6 3 14 7 17 10 10 23 8 23 -3z
m127 -14 c-4 -11 4 -16 31 -18 29 -2 36 -7 34 -21 -2 -9 4 -19 13 -22 53 -17
51 -16 34 -28 -13 -10 -14 -14 -3 -24 10 -10 14 -8 19 8 12 37 17 11 10 -50
-6 -49 -9 -58 -20 -48 -7 7 -11 15 -9 18 2 4 -7 14 -20 22 -35 24 -57 48 -51
57 3 5 -5 14 -17 21 -13 6 -35 23 -50 38 l-26 26 26 17 c33 22 36 22 29 4z"/>
<path d="M4780 3554 c0 -17 135 -204 147 -204 8 0 25 11 38 25 20 19 25 34 25
72 0 60 -19 89 -68 103 -40 11 -142 14 -142 4z"/>
<path d="M3230 3260 c0 -11 -4 -20 -10 -20 -5 0 -10 -9 -10 -20 0 -11 5 -20
11 -20 5 0 7 -5 3 -12 -5 -8 -2 -9 9 -5 10 3 17 2 17 -3 0 -6 9 -19 20 -30 11
-11 16 -20 10 -20 -19 0 -10 -19 21 -41 93 -66 259 -30 259 57 0 41 -39 69
-120 88 -41 9 -95 22 -120 29 -49 12 -56 11 -52 -6 1 -7 -4 -4 -11 6 -18 22
-27 22 -27 -3z"/>
<path d="M7245 3554 c-80 -41 -118 -118 -118 -240 0 -100 30 -176 88 -220 33
-25 47 -29 105 -29 56 0 73 4 108 28 23 15 52 46 64 70 20 36 23 57 23 153 0
105 -1 113 -30 160 -51 83 -162 119 -240 78z"/>
<path d="M6120 3460 l0 -100 105 0 c134 0 170 13 184 68 15 54 -1 96 -44 116
-24 12 -63 16 -139 16 l-106 0 0 -100z"/>
<path d="M7960 3460 l0 -100 113 0 c134 0 171 15 182 74 18 94 -30 126 -187
126 l-108 0 0 -100z"/>
</g>
</svg>
